<?xml version="1.0" encoding="utf-8"?>
<!-- Generator: Adobe Illustrator 19.0.0, SVG Export Plug-In . SVG Version: 6.00 Build 0)  -->
<svg version="1.1" id="Layer_1" xmlns="http://www.w3.org/2000/svg" xmlns:xlink="http://www.w3.org/1999/xlink" x="0px" y="0px"
	 viewBox="-183 181.9 35.4 35" style="enable-background:new -183 181.9 35.4 35;" xml:space="preserve">
<style type="text/css">
	.st0{fill:#01B3E3;}
	.st1{fill:#2D3C49;}
</style>
<g>
	<path id="mark_3_" class="st0" d="M-171.2,181.9l-11.8,6.7l0,15.4l0,0c0,7.1,5.8,12.8,12.9,12.9c2.4,0,4.6-0.6,6.5-1.7l0,0l9.6-5.4
		c3.8-1.9,6.4-5.8,6.4-10.3l0-16.1l0,0l0,0l-2.3-1.4l-9.6,5.4l0,0l0,0l0,16.8c0,0.7,0,1.2-0.2,2.1c-0.3,1.3-0.8,2.3-0.8,2.5
		c-0.7-0.1-2.3-0.5-3.5-1.2c-0.6-0.4-1.3-0.9-2-1.5c-0.4-0.4-0.8-0.9-1.1-1.4c-0.3-0.5-0.6-1-0.9-1.6c-0.2-0.6-0.4-1.2-0.5-1.8
		c-0.1-0.6-0.2-1.2-0.2-1.9l0,0l0-16.1L-171.2,181.9z M-165.7,213.7c-0.6,0.3-1.3,0.5-2,0.6c-0.7,0.1-1.3,0.2-2.1,0.2
		s-1.4-0.1-2.1-0.2c-0.7-0.1-1.3-0.3-2-0.6c-0.6-0.3-1.2-0.6-1.8-1c-1.5-1-2.2-1.9-2.9-2.8c-0.4-0.6-0.7-1.2-1-1.8
		c-0.3-0.6-0.5-1.3-0.6-2c-0.1-0.7-0.2-1.4-0.2-2.1l0-14.1l8.9-5.3l0,14.8l0,0c0,5.6,4.2,10.3,9.5,11.4c-0.2,0.2-0.4,0.5-0.6,0.7
		c-0.5,0.5-1,0.9-1.6,1.3C-164.7,213.1-165.1,213.4-165.7,213.7z M-150.4,201.3c-0.1,0.6-0.3,1.2-0.6,1.7c-0.6,1.4-1.7,2.6-2.6,3.4
		c-1.8,1.6-4,2.1-4.3,2.1c0.5-1.4,0.9-2.9,0.9-4.5l0,0l0-15.4l0,0l6.6-4l0,14.8C-150.2,200-150.3,200.7-150.4,201.3z"/>
	<g id="wordmark_2_">
		<g>
			<path class="st1" d="M-117.5,201.2c0,2.9-2.5,5.3-5.8,5.3c-3.3,0-5.7-2.4-5.7-5.3v-10.4h-1.8v10.4c0,3.8,2.9,7.1,7.5,7.1
				s7.6-3.3,7.6-7.1v-10.4h-1.8L-117.5,201.2L-117.5,201.2z M-98.6,190.7h-5.6l0,17.1l5.8,0c5.1,0,8.4-3.2,8.4-8.5
				C-90,193.9-93.5,190.7-98.6,190.7z M-98.8,206.1l-3.6,0v-13.6l3.6,0c4.2,0,7,2.6,7,6.8C-91.8,203.6-94.6,206.1-98.8,206.1z
				 M-49.4,206.5c-4.1,0-7-3.3-7-7.4c0-4,2.9-7.1,7-7.1c3.2,0,5.2,1.9,5.2,1.9l0.9-1.2c0,0-2.1-2.2-6.2-2.2c-4.9,0-8.7,3.7-8.7,8.6
				c0,4.9,3.7,9.1,8.7,9.1c4.2,0,6.6-2.8,6.6-2.8l-1-1.2C-43.8,204.2-45.9,206.5-49.4,206.5z M-31.6,207.8h1.8v-17.1h-1.8V207.8z
				 M-19.6,192.5h6.2l0,15.3h1.8v-15.3h6.2v-1.8h-14.2L-19.6,192.5L-19.6,192.5z M15.1,190.7l-5.5,7.9h0L4,190.7H2.1l6.6,9.7v7.4
				h1.8v-7.4l6.5-9.7H15.1z M-75.1,190.7l-7,17h1.8l1.8-4.6l7.8-1.6l2.5,6.1h1.8l-7-17L-75.1,190.7L-75.1,190.7z M-77.6,201.3
				l3.4-8.3h0l2.9,7L-77.6,201.3z"/>
		</g>
	</g>
</g>
</svg>
